<?xml version="1.0" encoding="UTF-8" standalone="no"?>
<!-- Created with Inkscape (http://www.inkscape.org/) -->

<svg
   width="175.34061mm"
   height="17.885637mm"
   viewBox="0 0 175.34061 17.885637"
   version="1.1"
   id="svg1"
   xml:space="preserve"
   xmlns="http://www.w3.org/2000/svg"
   xmlns:svg="http://www.w3.org/2000/svg"><defs
     id="defs1" /><g
     id="layer1"
     transform="translate(-24.721017,-95.909042)"><g
       id="text4"
       style="font-weight:bold;font-size:22.5778px;font-family:'Ubuntu Sans';-inkscape-font-specification:'Ubuntu Sans Bold';fill:#65d0c6;stroke-width:0.264583"
       aria-label="Where Do Locals"><path
         d="m 28.672132,113.46364 q -0.474134,-1.4224 -0.92569,-2.91254 -0.428978,-1.51271 -0.857956,-3.07058 -0.406401,-1.55787 -0.790223,-3.16089 -0.361245,-1.60302 -0.72249,-3.22863 -0.338667,-1.625598 -0.654756,-3.273778 h 3.318937 q 0.316089,1.941691 0.722489,4.018848 0.406401,2.07716 0.835379,4.04143 0.451556,1.94169 0.903112,3.54471 0.4064,-1.12889 0.812801,-2.39324 0.428978,-1.28694 0.835378,-2.57387 0.406401,-1.30952 0.767646,-2.5513 0.361244,-1.26435 0.677334,-2.370665 h 2.619024 q 0.451556,1.490135 0.970846,3.228625 0.519289,1.73849 1.083734,3.47698 0.564445,1.71591 1.083735,3.18347 0.428978,-1.58044 0.835378,-3.52213 0.428979,-1.96427 0.812801,-4.04143 0.406401,-2.077159 0.745068,-4.041428 h 3.18347 q -0.338667,1.64818 -0.699912,3.273778 -0.338667,1.62561 -0.72249,3.22863 -0.361245,1.60302 -0.790223,3.16089 -0.4064,1.55787 -0.857956,3.048 -0.428979,1.49014 -0.903112,2.93512 h -2.889959 q -0.564445,-1.51271 -1.12889,-3.09316 -0.541867,-1.60302 -1.083734,-3.27378 -0.51929,-1.67076 -1.061157,-3.38667 -0.519289,1.71591 -1.061157,3.38667 -0.519289,1.67076 -1.061156,3.27378 -0.541868,1.58045 -1.106313,3.09316 z m 18.446051,0 V 96.417399 l 2.935114,-0.474134 v 5.802495 q 0.428978,-0.15804 0.993423,-0.27093 0.587023,-0.11289 1.12889,-0.11289 1.919114,0 2.98027,0.69991 1.083735,0.67733 1.512713,1.89653 0.428978,1.21921 0.428978,2.84481 v 6.66045 h -2.935114 v -6.25405 q 0,-1.19663 -0.225778,-1.91912 -0.2032,-0.74506 -0.699912,-1.06115 -0.474134,-0.33867 -1.377246,-0.33867 -0.316089,0 -0.677334,0.0677 -0.338667,0.0452 -0.632178,0.11289 -0.293512,0.0677 -0.496712,0.13547 v 9.2569 z m 18.762132,0.29351 q -2.122314,0 -3.476982,-0.79022 -1.354668,-0.8128 -2.032002,-2.21263 -0.654756,-1.39982 -0.654756,-3.13831 0,-2.09974 0.812801,-3.47698 0.812801,-1.39983 2.077158,-2.09974 1.264356,-0.72249 2.686758,-0.72249 1.625601,0 2.799647,0.67734 1.196624,0.67733 1.828802,2.00942 0.654756,1.33209 0.654756,3.34151 0,0.24836 -0.02258,0.56445 -0.02258,0.31609 -0.04515,0.56444 h -7.744186 q 0.09031,1.28694 0.970846,2.00943 0.903112,0.72249 2.506135,0.72249 0.993424,0 1.828802,-0.18062 0.857957,-0.18063 1.354668,-0.4064 l 0.428979,2.41582 q -0.496712,0.24836 -1.625602,0.47413 -1.106312,0.24836 -2.348091,0.24836 z m -3.115737,-7.36036 h 4.944538 q -0.02258,-0.69992 -0.293511,-1.28694 -0.248356,-0.6096 -0.767645,-0.97084 -0.496712,-0.36125 -1.33209,-0.36125 -0.812801,0 -1.354668,0.38382 -0.51929,0.36125 -0.812801,0.97085 -0.293512,0.58702 -0.383823,1.26436 z m 10.566374,7.06685 v -11.22117 q 0.8128,-0.29351 1.986846,-0.56444 1.196624,-0.29352 2.686758,-0.29352 0.383823,0 0.903112,0.0677 0.51929,0.0451 0.993424,0.13547 0.496711,0.0903 0.8128,0.22577 l -0.496711,2.43841 q -0.406401,-0.11289 -1.016001,-0.22578 -0.587023,-0.11289 -1.33209,-0.11289 -0.451556,0 -0.92569,0.0677 -0.451556,0.0677 -0.677334,0.15805 v 9.32463 z m 14.658589,0.29351 q -2.122313,0 -3.476981,-0.79022 -1.354668,-0.8128 -2.032003,-2.21263 -0.654756,-1.39982 -0.654756,-3.13831 0,-2.09974 0.812801,-3.47698 0.812801,-1.39983 2.077158,-2.09974 1.264357,-0.72249 2.686758,-0.72249 1.625602,0 2.799647,0.67734 1.196624,0.67733 1.828802,2.00942 0.654756,1.33209 0.654756,3.34151 0,0.24836 -0.02258,0.56445 -0.02258,0.31609 -0.04516,0.56444 h -7.744186 q 0.09031,1.28694 0.970846,2.00943 0.903112,0.72249 2.506136,0.72249 0.993423,0 1.828802,-0.18062 0.857956,-0.18063 1.354668,-0.4064 l 0.428978,2.41582 q -0.496712,0.24836 -1.625602,0.47413 -1.106312,0.24836 -2.348091,0.24836 z m -3.115737,-7.36036 h 4.944539 q -0.02258,-0.69992 -0.293512,-1.28694 -0.248355,-0.6096 -0.767645,-0.97084 -0.496712,-0.36125 -1.33209,-0.36125 -0.812801,0 -1.354668,0.38382 -0.51929,0.36125 -0.812801,0.97085 -0.293511,0.58702 -0.383823,1.26436 z m 20.613476,7.24747 q -0.94827,0 -2.16747,-0.0903 -1.2192,-0.0677 -2.34809,-0.31609 V 98.043 q 1.12889,-0.225778 2.39325,-0.316089 1.26436,-0.09031 2.21262,-0.09031 2.64161,0 4.62845,0.835379 1.98685,0.835378 3.09316,2.59645 1.10631,1.76106 1.10631,4.56071 0,2.68676 -1.10631,4.47041 -1.08373,1.78364 -3.09316,2.66418 -2.00942,0.88053 -4.71876,0.88053 z m 0.18062,-2.6416 q 2.79965,0 4.15432,-1.4224 1.37725,-1.44498 1.37725,-3.95112 0,-2.59645 -1.33209,-3.97369 -1.30952,-1.37725 -4.10916,-1.37725 -0.56445,0 -0.99343,0.0226 -0.4064,0.0226 -0.69991,0.0677 v 10.56641 q 0.22578,0.0226 0.58702,0.0452 0.38383,0.0226 1.016,0.0226 z m 16.70754,2.75449 q -1.69334,0 -3.00285,-0.76765 -1.28694,-0.79022 -2.00943,-2.19004 -0.72249,-1.39983 -0.72249,-3.27378 0,-1.87396 0.74507,-3.25121 0.74507,-1.37724 2.032,-2.16747 1.30952,-0.79022 2.9577,-0.79022 1.67075,0 2.95769,0.79022 1.30951,0.76765 2.032,2.16747 0.72249,1.37725 0.72249,3.25121 0,1.87395 -0.72249,3.27378 -0.69991,1.39982 -1.98685,2.19004 -1.26435,0.76765 -3.00284,0.76765 z m 0,-2.52871 q 0.85795,0 1.44497,-0.45156 0.60961,-0.45156 0.92569,-1.28693 0.33867,-0.83538 0.33867,-1.96427 0,-1.12889 -0.33867,-1.94169 -0.31608,-0.8128 -0.92569,-1.26436 -0.58702,-0.45156 -1.44497,-0.45156 -0.85796,0 -1.46756,0.45156 -0.6096,0.45156 -0.92569,1.26436 -0.31609,0.8128 -0.31609,1.94169 0,1.12889 0.31609,1.96427 0.31609,0.8128 0.92569,1.28693 0.6096,0.45156 1.46756,0.45156 z"
         id="path20" /><path
         d="M 136.37365,113.46364 V 97.817222 h 3.09315 v 12.982238 h 7.0217 v 2.66418 z m 17.36231,0.29351 q -1.69333,0 -3.00285,-0.76765 -1.28693,-0.79022 -2.00942,-2.19004 -0.72249,-1.39983 -0.72249,-3.27378 0,-1.87396 0.74507,-3.25121 0.74507,-1.37724 2.032,-2.16747 1.30951,-0.79022 2.95769,-0.79022 1.67076,0 2.95769,0.79022 1.30952,0.76765 2.03201,2.16747 0.72249,1.37725 0.72249,3.25121 0,1.87395 -0.72249,3.27378 -0.69992,1.39982 -1.98685,2.19004 -1.26436,0.76765 -3.00285,0.76765 z m 0,-2.52871 q 0.85796,0 1.44498,-0.45156 0.6096,-0.45156 0.92569,-1.28693 0.33867,-0.83538 0.33867,-1.96427 0,-1.12889 -0.33867,-1.94169 -0.31609,-0.8128 -0.92569,-1.26436 -0.58702,-0.45156 -1.44498,-0.45156 -0.85795,0 -1.46755,0.45156 -0.60961,0.45156 -0.92569,1.26436 -0.31609,0.8128 -0.31609,1.94169 0,1.12889 0.31609,1.96427 0.31608,0.8128 0.92569,1.28693 0.6096,0.45156 1.46755,0.45156 z m 13.9079,2.52871 q -2.09973,0 -3.43182,-0.8128 -1.33209,-0.8128 -1.98685,-2.21263 -0.63218,-1.39982 -0.63218,-3.18347 0,-1.73849 0.72249,-3.13831 0.72249,-1.4224 2.05458,-2.25778 1.33209,-0.83538 3.18347,-0.83538 0.94827,0 1.73849,0.18062 0.8128,0.15805 1.49014,0.45156 l -0.63218,2.37067 q -0.47413,-0.18062 -1.03858,-0.31609 -0.56444,-0.13547 -1.30951,-0.13547 -1.60303,0 -2.39325,1.016 -0.79022,0.99343 -0.79022,2.66418 0,1.12889 0.31609,1.96427 0.31609,0.8128 1.06115,1.26436 0.74507,0.42898 1.96427,0.42898 0.67734,0 1.35467,-0.13547 0.69991,-0.13547 1.2192,-0.36124 l 0.45156,2.4384 q -0.54187,0.24835 -1.4224,0.42898 -0.88054,0.18062 -1.91912,0.18062 z m 9.31331,-0.0452 q -1.46755,0 -2.57386,-0.36124 -1.10632,-0.38382 -1.7385,-1.2192 -0.6096,-0.85796 -0.6096,-2.28036 0,-1.35467 0.67734,-2.16747 0.69991,-0.8128 1.85138,-1.15147 1.15147,-0.36124 2.46098,-0.36124 0.65475,0 1.19662,0.0677 0.56445,0.0677 0.83538,0.15805 v -0.4064 q 0,-0.63218 -0.22578,-1.12889 -0.2032,-0.49672 -0.74507,-0.76765 -0.51928,-0.29351 -1.44497,-0.29351 -0.97085,0 -1.76107,0.13547 -0.79023,0.13546 -1.30952,0.33866 l -0.38382,-2.39324 q 0.54187,-0.18063 1.55787,-0.36125 1.03858,-0.2032 2.21262,-0.2032 1.87396,0 2.9577,0.58702 1.08373,0.58703 1.53529,1.64818 0.45155,1.06116 0.45155,2.50614 v 7.08943 q -0.65475,0.13547 -1.94169,0.33867 -1.26435,0.22577 -3.00285,0.22577 z m 0.22578,-2.30293 q 0.58703,0 1.08374,-0.0226 0.49671,-0.0452 0.79022,-0.11289 v -2.88996 q -0.2032,-0.0677 -0.65476,-0.11289 -0.42897,-0.0677 -0.90311,-0.0677 -0.65475,0 -1.24178,0.13547 -0.56444,0.11289 -0.92569,0.45155 -0.36124,0.33867 -0.36124,0.99343 0,0.90311 0.58702,1.26435 0.6096,0.36125 1.6256,0.36125 z m 12.25974,2.28036 q -1.71592,-0.0452 -2.66418,-0.49672 -0.94827,-0.45155 -1.33209,-1.30951 -0.36125,-0.85795 -0.36125,-2.07716 V 96.417399 l 2.95769,-0.474134 v 13.320905 q 0,0.94826 0.33867,1.4224 0.33867,0.45155 1.49014,0.56444 z m 5.66702,0.0677 q -1.55787,0 -2.57387,-0.27093 -0.99343,-0.24836 -1.37725,-0.42898 l 0.54187,-2.41583 q 0.69991,0.27094 1.55787,0.49671 0.88053,0.20321 1.87395,0.20321 0.99343,0 1.46756,-0.22578 0.49671,-0.22578 0.49671,-0.85796 0,-0.36124 -0.24835,-0.6096 -0.22578,-0.24836 -0.72249,-0.49671 -0.47414,-0.24836 -1.24178,-0.54187 -0.99342,-0.38382 -1.78365,-0.8128 -0.76764,-0.45156 -1.2192,-1.15147 -0.42898,-0.69991 -0.42898,-1.80622 0,-1.08374 0.54187,-1.85138 0.56444,-0.79022 1.55787,-1.2192 1.016,-0.45156 2.41582,-0.45156 1.10632,0 2.05458,0.2032 0.94827,0.2032 1.46756,0.4064 l -0.54187,2.32552 q -0.49671,-0.18063 -1.19662,-0.36125 -0.67733,-0.18062 -1.60302,-0.18062 -0.83538,0 -1.30952,0.27093 -0.47413,0.24836 -0.47413,0.8128 0,0.33867 0.18062,0.58703 0.18062,0.24835 0.6096,0.47413 0.42898,0.22578 1.19663,0.51929 1.37724,0.49671 2.16746,1.016 0.79023,0.51929 1.15147,1.19662 0.36125,0.67734 0.36125,1.69334 0,1.15147 -0.58703,1.91911 -0.56444,0.76765 -1.67075,1.17405 -1.10632,0.38382 -2.66418,0.38382 z"
         id="path21" /></g><path
       style="font-variation-settings:normal;opacity:1;vector-effect:none;fill:#65d0c6;fill-opacity:1;stroke-width:0.284091;stroke-linecap:butt;stroke-linejoin:miter;stroke-miterlimit:4;stroke-dasharray:none;stroke-dashoffset:0;stroke-opacity:1;-inkscape-stroke:none"
       d="m 459.23076,419.96082 c -2.82578,-1.01048 -4.85702,-3.29284 -6.14793,-6.90797 -0.58674,-1.64314 -0.65306,-2.32739 -0.64559,-6.6608 0.007,-4.26464 0.0815,-5.02627 0.63346,-6.51139 1.23515,-3.32305 3.15039,-5.67277 5.3848,-6.60637 1.60708,-0.67148 3.89479,-0.93932 5.62196,-0.65822 5.51298,0.89726 8.64561,5.77645 8.68687,13.53014 0.0202,3.80355 -0.35891,5.82895 -1.59515,8.52113 -1.08153,2.35529 -2.76778,4.1736 -4.64953,5.0137 -1.85009,0.82595 -5.38237,0.96154 -7.28889,0.27978 z"
       id="path5"
       transform="scale(0.26458333)" /><path
       style="font-variation-settings:normal;opacity:1;vector-effect:none;fill:#65d0c6;fill-opacity:1;stroke-width:0.264583;stroke-linecap:butt;stroke-linejoin:miter;stroke-miterlimit:4;stroke-dasharray:none;stroke-dashoffset:0;stroke-opacity:1;-inkscape-stroke:none"
       id="path6"
       d="m 118.00277,105.54198 c 0.006,0.12037 0.008,0.24132 -0.0145,0.36045 -0.0106,0.0568 -0.0303,0.11292 -0.0478,0.1678 -0.0371,0.13398 -0.0633,0.27026 -0.0931,0.406 -0.021,0.10135 -0.0274,0.20514 -0.0361,0.3083 -0.008,0.12 -0.0163,0.23999 -0.0185,0.36023 -0.005,0.11168 0.003,0.22345 -1.6e-4,0.33505 0.002,0.0147 0.004,0.0297 0.007,0.0441 0.002,0.007 0.0392,0.12089 0.0407,0.12621 0.0191,0.0697 0.0295,0.14097 0.038,0.21253 0.009,0.10184 5.3e-4,0.20454 -0.008,0.30618 -0.009,0.0367 -0.011,0.0741 -0.0151,0.11135 -0.002,0.0364 0.003,0.0726 0.005,0.10898 -10e-4,0.052 -0.01,0.10142 0.002,0.15325 0.007,0.0308 0.0205,0.06 0.0293,0.0904 0.0244,0.0617 0.026,0.12673 0.0285,0.19179 0,0 3.52861,1.76723 3.52861,1.76723 v 0 c -0.008,-0.0825 -0.0215,-0.1646 -0.0233,-0.24775 -0.004,-0.0312 -0.004,-0.063 -0.0104,-0.0937 -10e-4,-0.006 -0.006,-0.0109 -0.009,-0.0163 -0.004,-2.6e-4 -0.0103,0.003 -0.0122,-0.001 -0.007,-0.0129 0.008,-0.0309 -7.9e-4,-0.0438 0.003,-0.0338 0.007,-0.0674 0.006,-0.1013 -0.004,-0.0446 -0.006,-0.0893 -0.0149,-0.13341 -0.0106,-0.11917 -0.0253,-0.2379 -0.0323,-0.35732 -0.004,-0.0785 -0.007,-0.1571 -0.0101,-0.23563 -5.3e-4,-0.0139 -8e-4,-0.0967 -0.003,-0.11733 -0.002,-0.0136 -0.006,-0.0267 -0.009,-0.04 -0.006,-0.01 -0.0132,-0.0188 -0.0166,-0.0296 -0.01,-0.0316 -0.0106,-0.0653 -0.0166,-0.0978 -0.006,-0.0321 -0.0155,-0.0636 -0.0182,-0.0961 -0.002,-0.0185 2.2e-4,-0.0372 2.7e-4,-0.0558 2e-5,-0.11045 -0.005,-0.221 0.005,-0.33122 0.01,-0.0995 0.0355,-0.19713 0.0287,-0.29742 0.003,-0.13283 0.0272,-0.26315 0.0377,-0.39534 0.009,-0.0723 0.0127,-0.11272 0.0294,-0.18527 0.008,-0.0354 0.0195,-0.07 0.0284,-0.10519 0.0176,-0.0701 0.0314,-0.13856 0.0732,-0.19952 z" /><path
       style="font-variation-settings:normal;opacity:1;vector-effect:none;fill:#65d0c6;fill-opacity:1;stroke-width:0.264583;stroke-linecap:butt;stroke-linejoin:miter;stroke-miterlimit:4;stroke-dasharray:none;stroke-dashoffset:0;stroke-opacity:1;-inkscape-stroke:none"
       id="path7"
       d="m 122.77821,104.99521 c 0.0464,0.14986 0.0373,0.3065 0.0322,0.46095 0.0122,0.13939 -0.0138,0.27616 -0.0476,0.41049 -0.0407,0.14338 -0.0802,0.28713 -0.12992,0.42767 -0.0765,0.17957 -0.15446,0.35828 -0.22209,0.54145 -0.10029,0.25171 -0.24087,0.48235 -0.38589,0.71 -0.12272,0.17238 -0.21342,0.36328 -0.32094,0.54484 -0.0142,0.0229 -0.0283,0.0459 -0.0427,0.0687 -0.0415,0.0657 -0.0502,0.0727 -0.0845,0.14503 -0.059,0.12436 -0.0221,0.0712 -0.0922,0.20139 -0.0184,0.0341 -0.0397,0.0665 -0.0595,0.0997 -0.10078,0.15465 -0.20866,0.30429 -0.32288,0.44925 -0.0569,0.0785 -0.13132,0.14132 -0.19394,0.21474 -0.0335,0.0392 -0.0649,0.0802 -0.0982,0.1195 -0.11389,0.13807 -0.22882,0.27491 -0.36319,0.39399 -0.0562,0.0438 -0.10588,0.0949 -0.15929,0.14151 -0.0378,0.033 -0.0811,0.0614 -0.12024,0.0931 -0.0553,0.0346 -0.10196,0.0804 -0.15575,0.11689 0,0 3.37985,2.08182 3.37985,2.08182 v 0 c 0.0337,-0.0482 0.079,-0.0868 0.11431,-0.13384 0.0856,-0.0894 0.16597,-0.18439 0.24263,-0.28154 0.1203,-0.13996 0.244,-0.27605 0.37694,-0.40421 0.11146,-0.11701 0.21929,-0.23702 0.31611,-0.36673 0.10955,-0.16066 0.18272,-0.34057 0.28359,-0.50665 0.0591,-0.0932 0.069,-0.11264 0.13389,-0.20009 0.0216,-0.0292 0.046,-0.0562 0.067,-0.0858 0.0517,-0.0731 0.0871,-0.15572 0.12896,-0.23438 0.039,-0.089 0.0805,-0.17728 0.12565,-0.26339 0.0166,-0.0317 0.0366,-0.0617 0.0523,-0.0939 0.0313,-0.0641 0.0503,-0.13368 0.0852,-0.19616 0.0645,-0.12004 0.12361,-0.24371 0.19019,-0.36254 0.0697,-0.12437 0.14795,-0.24427 0.21918,-0.36778 0.10608,-0.17283 0.20263,-0.35195 0.28011,-0.53957 0.0662,-0.14723 0.13318,-0.29449 0.1739,-0.4514 0.0493,-0.16493 0.0634,-0.33925 0.0889,-0.50922 -0.005,-0.14287 -0.0193,-0.2915 0.0322,-0.42812 z" /><path
       style="font-variation-settings:normal;opacity:1;vector-effect:none;fill:#65d0c6;fill-opacity:1;stroke-width:0.264583;stroke-linecap:butt;stroke-linejoin:miter;stroke-miterlimit:4;stroke-dasharray:none;stroke-dashoffset:0;stroke-opacity:1;-inkscape-stroke:none"
       id="path8"
       d="m 121.14806,102.36565 c -0.13442,0.14244 -0.32057,0.21383 -0.49725,0.288 -0.0849,0.028 -0.14533,0.0829 -0.20993,0.14107 -0.0193,0.0174 -0.0413,0.0319 -0.0588,0.0511 -0.045,0.049 -0.0818,0.10488 -0.1238,0.15645 -0.15934,0.14181 -0.25899,0.32842 -0.36294,0.51119 -0.11081,0.16777 -0.20899,0.34465 -0.33004,0.50536 -0.14853,0.2039 -0.18769,0.43095 -0.22718,0.67438 -0.0108,0.36998 -0.12961,0.72164 -0.20869,1.0795 -0.0138,0.077 -0.0405,0.21396 -0.046,0.29228 -0.004,0.0579 -0.002,0.11615 -0.003,0.17422 -0.004,0.17157 -0.0101,0.34263 -0.021,0.51389 -0.009,0.12313 -0.0235,0.24566 -0.0346,0.36859 0,0 3.42712,1.72747 3.42712,1.72747 v 0 c -0.0214,-0.12822 -0.046,-0.25616 -0.0547,-0.38611 -0.003,-0.16562 -0.003,-0.33043 0.0143,-0.49549 0.005,-0.0496 0.0152,-0.0987 0.021,-0.14828 0.0108,-0.0931 0.0131,-0.18706 0.0273,-0.27983 0.0403,-0.35418 0.0434,-0.72014 0.19004,-1.05199 0.0689,-0.18035 0.15338,-0.35304 0.2556,-0.51707 0.0314,-0.0556 0.0661,-0.10936 0.0952,-0.1662 0.0139,-0.0271 0.0232,-0.0563 0.0368,-0.0835 0.048,-0.0959 0.10348,-0.18888 0.15755,-0.28145 0.11066,-0.15238 0.23106,-0.29689 0.3623,-0.43209 0.0208,-0.0193 0.0402,-0.0401 0.0623,-0.0579 0.0181,-0.0146 0.039,-0.0254 0.0579,-0.039 0.0183,-0.0131 0.0348,-0.0287 0.0536,-0.0412 0.0498,-0.0333 0.108,-0.0542 0.15481,-0.0926 0.16929,-0.1071 0.33915,-0.21969 0.54096,-0.25331 z" /><path
       style="font-variation-settings:normal;opacity:1;vector-effect:none;fill:#65d0c6;fill-opacity:1;stroke-width:0.264583;stroke-linecap:butt;stroke-linejoin:miter;stroke-miterlimit:4;stroke-dasharray:none;stroke-dashoffset:0;stroke-opacity:1;-inkscape-stroke:none"
       id="path9"
       d="m 122.49201,103.98461 c 0.0937,0.0519 0.17512,0.12437 0.25091,0.1995 0.0279,0.0276 0.0579,0.0533 0.0834,0.0831 0.0289,0.0338 0.0528,0.0716 0.0792,0.10732 0.1249,0.19479 0.19789,0.41636 0.22877,0.64455 0.022,0.15466 0.0141,0.31038 0.008,0.46573 -0.0123,0.10927 -0.0158,0.21858 -0.006,0.32811 -0.002,0.15248 0.0382,0.30127 0.0524,0.45235 0.004,0.0386 0.005,0.0774 0.007,0.11605 0.0115,0.13429 -0.008,0.26828 -0.0107,0.40227 -0.001,0.0586 0.002,0.11723 0.002,0.17585 -0.0223,0.18842 -0.0904,0.36728 -0.15481,0.54455 -0.0566,0.16641 -0.0983,0.33412 -0.11995,0.50857 -0.0399,0.28503 -0.15985,0.54831 -0.24458,0.82099 -0.11609,0.37805 -0.36545,0.68453 -0.62186,0.977 -0.2588,0.29555 -0.56422,0.54304 -0.87619,0.77951 -0.15123,0.12207 -0.29531,0.25297 -0.45403,0.36545 -0.0954,0.0676 -0.14062,0.0949 -0.23828,0.15731 -0.1954,0.1241 -0.40323,0.22777 -0.63214,0.26896 -0.0748,0.003 -0.15212,0.0143 -0.22714,0.008 -0.0964,-0.008 -0.19064,-0.0448 -0.28154,-0.0746 -0.13289,-0.0293 -0.25808,-0.0839 -0.38624,-0.12845 0,0 3.06387,2.3652 3.06387,2.3652 v 0 c 0.12304,0.03 0.247,0.0522 0.37202,0.0724 0.22549,0.0206 0.4558,0.0216 0.66279,-0.0833 0.21386,-0.11857 0.41074,-0.26303 0.61643,-0.39482 0.12089,-0.09 0.23798,-0.18431 0.35755,-0.27601 0.12205,-0.0936 0.24414,-0.18655 0.35234,-0.29668 0.26359,-0.29142 0.51615,-0.5929 0.78977,-0.87525 0.0708,-0.0776 0.25154,-0.27361 0.31898,-0.35436 0.0773,-0.0925 0.19664,-0.25426 0.26872,-0.35176 0.0421,-0.0569 0.0873,-0.11176 0.12566,-0.17127 0.0321,-0.0497 0.0568,-0.10382 0.0852,-0.15572 0.0209,-0.0475 0.0445,-0.094 0.0628,-0.14256 0.0164,-0.0436 0.0273,-0.0891 0.0412,-0.13357 0.0575,-0.18323 0.11782,-0.36693 0.20179,-0.53997 0.0172,-0.0343 0.0361,-0.0678 0.0515,-0.10298 0.0537,-0.12254 0.0805,-0.25449 0.10581,-0.38509 0.0221,-0.0916 0.0502,-0.18114 0.0714,-0.27294 0.0166,-0.0715 0.0288,-0.14396 0.0463,-0.21522 0.01,-0.0392 0.0216,-0.0779 0.0324,-0.11679 0.0236,-0.0803 0.0462,-0.13798 0.0502,-0.22177 0.002,-0.0314 -0.004,-0.0628 -0.007,-0.0941 -0.007,-0.11047 -0.0152,-0.22105 -0.0143,-0.33187 0.002,-0.17368 0.0268,-0.34722 0.0103,-0.52066 0.0118,-0.11158 0.007,-0.22338 -0.002,-0.33504 -0.007,-0.1812 -0.0188,-0.36231 -0.0382,-0.54258 -0.0196,-0.12673 -0.0364,-0.25514 -0.0684,-0.37954 -0.026,-0.10115 -0.0531,-0.16822 -0.0868,-0.26703 -0.0155,-0.0451 -0.0303,-0.0905 -0.0454,-0.13574 -0.0153,-0.0401 -0.0311,-0.08 -0.046,-0.12025 -0.0134,-0.0359 -0.0229,-0.0733 -0.0389,-0.10801 -0.0125,-0.0271 -0.0317,-0.0505 -0.0463,-0.0765 -0.0126,-0.0223 -0.0215,-0.0466 -0.0353,-0.0682 -0.0105,-0.0164 -0.0264,-0.0288 -0.037,-0.045 -0.009,-0.0131 -0.0134,-0.0282 -0.0201,-0.0423 z" /><path
       style="font-variation-settings:normal;opacity:1;vector-effect:none;fill:#65d0c6;fill-opacity:1;stroke-width:0.0624219;stroke-linecap:butt;stroke-linejoin:miter;stroke-miterlimit:4;stroke-dasharray:none;stroke-dashoffset:0;stroke-opacity:1;-inkscape-stroke:none"
       d="m 460.86142,429.9192 c -1.31474,-0.0775 -3.26082,-0.38574 -4.48546,-0.71032 -3.56488,-0.94487 -6.38389,-2.55687 -8.93814,-5.11112 -3.70566,-3.70566 -5.83441,-8.48506 -6.46544,-14.51599 -0.15317,-1.4639 -0.15425,-4.87963 -0.002,-6.30462 0.61405,-5.74672 2.63743,-10.31897 6.20321,-14.01745 3.49583,-3.62593 7.82712,-5.70148 13.03238,-6.2451 0.98189,-0.10255 3.59268,-0.10309 4.61923,-9.6e-4 3.79065,0.37713 6.9132,1.50614 10.04994,3.63371 4.41671,2.99575 7.48938,7.83523 8.67697,13.66634 0.38876,1.90882 0.55257,3.70193 0.55301,6.05335 3.6e-4,1.97927 -0.0649,2.96726 -0.30894,4.67657 -0.61725,4.32337 -2.2075,8.15398 -4.74439,11.4283 -0.67123,0.86634 -2.19639,2.41165 -3.05306,3.09337 -3.28805,2.61661 -6.96745,3.99708 -11.54806,4.33272 -0.80084,0.0587 -2.75787,0.0702 -3.58927,0.0212 z m 16.66667,-12.06652 v -3.74531 h -15.0437 -15.04369 v 3.74531 3.74532 h 15.04369 15.0437 z m -6e-4,-4.47911 c -10e-4,-1.24937 -0.2581,-3.05611 -0.65474,-4.60328 -1.24449,-4.85439 -4.14436,-8.97117 -7.83405,-11.12155 -1.49146,-0.86924 -2.95007,-1.37574 -4.8221,-1.67447 l -0.23408,-0.0374 v -0.56097 c 0,-0.36002 0.0339,-0.64209 0.0946,-0.78742 0.4976,-1.19094 -0.008,-2.88592 -0.99469,-3.33401 -0.33123,-0.15043 -0.86488,-0.15043 -1.19611,0 -0.9866,0.44809 -1.49229,2.14307 -0.99469,3.33401 0.0607,0.14533 0.0946,0.4274 0.0946,0.78742 v 0.56097 l -0.23409,0.0374 c -0.78069,0.12458 -1.59865,0.30809 -2.12581,0.47692 -4.56169,1.46098 -8.23703,5.39634 -10.07615,10.78899 -0.66035,1.93627 -1.10738,4.40893 -1.10892,6.1338 l -6e-4,0.67112 15.04369,-4.1e-4 15.0437,-4.1e-4 z"
       id="path11"
       transform="scale(0.26458333)" /><path
       style="font-variation-settings:normal;opacity:1;vector-effect:none;fill:#65d0c6;fill-opacity:1;stroke-width:0.0624219;stroke-linecap:butt;stroke-linejoin:miter;stroke-miterlimit:4;stroke-dasharray:none;stroke-dashoffset:0;stroke-opacity:1;-inkscape-stroke:none"
       d="m 460.70537,429.92288 c -0.8025,-0.0657 -2.39552,-0.29261 -3.21473,-0.458 -4.89666,-0.98862 -8.95356,-3.55713 -11.98938,-7.59074 -3.35754,-4.46108 -4.94039,-10.283 -4.62608,-17.01531 0.0773,-1.65667 0.22233,-2.92545 0.4839,-4.23461 0.90972,-4.55316 2.8241,-8.27673 5.87335,-11.424 3.39399,-3.50308 7.56095,-5.534 12.63024,-6.15581 1.17753,-0.14444 4.12927,-0.14246 5.33104,0.004 2.5789,0.31337 4.66672,0.90265 6.75887,1.90766 4.88731,2.34772 8.37736,6.12876 10.40067,11.26782 1.33932,3.40179 1.93396,7.38843 1.73659,11.64266 -0.18793,4.05088 -0.95613,7.30658 -2.46745,10.45731 -1.09381,2.28034 -2.39127,4.13077 -4.09317,5.83765 -3.23274,3.24221 -7.06258,5.04633 -11.98615,5.64631 -0.81044,0.0988 -4.08621,0.17695 -4.8377,0.11548 z m 16.88492,-12.17943 c -2.3e-4,-4.06317 -0.0469,-5.30042 -0.25385,-6.72597 -0.71506,-4.92622 -3.17852,-9.4934 -6.58113,-12.20125 -1.90408,-1.51528 -4.27726,-2.56209 -6.44507,-2.84292 l -0.32772,-0.0425 3e-5,-0.54034 c 3e-5,-0.40862 0.0332,-0.62402 0.13615,-0.88365 0.19029,-0.47992 0.19124,-1.49337 0.002,-2.01206 -0.69134,-1.8939 -2.64945,-1.8482 -3.2979,0.077 -0.16876,0.50103 -0.15468,1.47183 0.0281,1.93508 0.10189,0.25829 0.13544,0.47647 0.13547,0.88095 l 3e-5,0.53762 -0.48377,0.0752 c -1.22133,0.18993 -2.735,0.67346 -3.82226,1.22099 -4.67296,2.35327 -8.15588,7.664 -9.04837,13.79689 -0.20416,1.40291 -0.25244,2.69205 -0.25303,6.7561 l -5.6e-4,3.82334 h 15.10611 15.10612 z"
       id="path12"
       transform="scale(0.26458333)" /><path
       style="font-variation-settings:normal;opacity:1;vector-effect:none;fill:#65d0c6;fill-opacity:1;stroke-width:0.0624219;stroke-linecap:butt;stroke-linejoin:miter;stroke-miterlimit:4;stroke-dasharray:none;stroke-dashoffset:0;stroke-opacity:1;-inkscape-stroke:none"
       d="m 459.9563,429.86126 c -5.13037,-0.60129 -8.95134,-2.30848 -12.23756,-5.46766 -4.52998,-4.35487 -6.89622,-10.51001 -6.89399,-17.93293 0.002,-6.33385 1.66015,-11.51907 5.03061,-15.73033 0.68381,-0.8544 2.48077,-2.66048 3.27073,-3.28734 4.14697,-3.29073 9.08058,-4.79501 14.73998,-4.49427 3.21368,0.17077 5.82696,0.85216 8.54148,2.22711 5.30116,2.68515 8.91135,7.14262 10.67795,13.18397 1.17291,4.01111 1.3765,9.38509 0.52564,13.8749 -0.86472,4.56298 -2.87944,8.61512 -5.79425,11.6538 -3.47939,3.62724 -7.91167,5.62991 -13.30378,6.01115 -1.22799,0.0868 -3.66347,0.0663 -4.55681,-0.0384 z m 17.63399,-12.11781 c -2.3e-4,-4.06317 -0.0469,-5.30042 -0.25385,-6.72597 -0.71506,-4.92622 -3.17852,-9.4934 -6.58113,-12.20125 -1.90408,-1.51528 -4.27726,-2.56209 -6.44507,-2.84292 l -0.32772,-0.0425 3e-5,-0.54034 c 3e-5,-0.40862 0.0332,-0.62402 0.13615,-0.88365 0.19029,-0.47992 0.19124,-1.49337 0.002,-2.01206 -0.69134,-1.8939 -2.64945,-1.8482 -3.2979,0.077 -0.16876,0.50103 -0.15468,1.47183 0.0281,1.93508 0.10189,0.25829 0.13544,0.47647 0.13547,0.88095 l 3e-5,0.53762 -0.48377,0.0752 c -1.22133,0.18993 -2.735,0.67346 -3.82226,1.22099 -4.67296,2.35327 -8.15588,7.664 -9.04837,13.79689 -0.20416,1.40291 -0.25244,2.69205 -0.25303,6.7561 l -5.6e-4,3.82334 h 15.10611 15.10612 z"
       id="path13"
       transform="scale(0.26458333)" /><path
       style="font-variation-settings:normal;opacity:1;vector-effect:none;fill:#65d0c6;fill-opacity:1;stroke-width:0.0624219;stroke-linecap:butt;stroke-linejoin:miter;stroke-miterlimit:4;stroke-dasharray:none;stroke-dashoffset:0;stroke-opacity:1;-inkscape-stroke:none"
       d="m 460.48689,429.91912 c -0.5555,-0.0428 -2.16816,-0.27982 -2.90253,-0.42668 -2.54629,-0.50923 -5.1014,-1.54013 -7.05461,-2.8463 -5.76229,-3.85342 -9.15049,-10.20027 -9.6428,-18.06312 -0.49886,-7.96738 1.63668,-14.5215 6.30166,-19.34021 3.46896,-3.58328 7.67708,-5.63198 12.76769,-6.21588 0.97935,-0.11233 2.94133,-0.14784 4.08864,-0.074 3.11526,0.20047 5.46588,0.8096 8.08365,2.09475 1.32361,0.64981 2.42392,1.3177 3.47714,2.11065 5.96558,4.49135 9.00992,12.09736 8.4754,21.17501 -0.37535,6.37436 -2.54448,11.71219 -6.36338,15.65906 -3.41312,3.52749 -7.83082,5.51246 -13.14222,5.90505 -0.80092,0.0592 -3.42059,0.0731 -4.08864,0.0217 z m 17.10362,-12.40069 c 0,-4.20421 -0.0336,-5.07077 -0.25419,-6.55821 -0.51774,-3.49093 -1.86291,-6.73158 -3.90692,-9.41212 -0.63148,-0.82813 -1.81891,-2.05163 -2.61167,-2.691 -1.86636,-1.50524 -4.13036,-2.53222 -6.29099,-2.85366 l -0.54422,-0.081 v -0.50709 c 0,-0.36901 0.0375,-0.6085 0.13785,-0.87947 0.2001,-0.54053 0.19725,-1.59302 -0.006,-2.10659 -0.36506,-0.9238 -1.11741,-1.45329 -1.88153,-1.32419 -0.5392,0.0911 -1.10734,0.63664 -1.37904,1.32419 -0.20295,0.51357 -0.20579,1.56606 -0.006,2.10659 0.10031,0.27097 0.13785,0.51046 0.13785,0.87947 v 0.50709 l -0.54422,0.081 c -2.18073,0.32443 -4.45592,1.36435 -6.35496,2.90465 -0.74415,0.60359 -1.9389,1.84161 -2.5477,2.64001 -2.35768,3.09189 -3.77457,6.91715 -4.09595,11.05801 -0.036,0.46423 -0.0652,2.66189 -0.0652,4.91573 v 4.07616 h 15.10611 15.10612 z"
       id="path14"
       transform="scale(0.26458333)" /><path
       style="font-variation-settings:normal;opacity:1;vector-effect:none;fill:#65d0c6;fill-opacity:1;stroke-width:0.0624219;stroke-linecap:butt;stroke-linejoin:miter;stroke-miterlimit:4;stroke-dasharray:none;stroke-dashoffset:0;stroke-opacity:1;-inkscape-stroke:none"
       d="m 460.42447,429.92439 c -4.34584,-0.51687 -7.148,-1.45239 -9.96977,-3.32848 -5.1496,-3.42378 -8.45713,-9.0564 -9.37647,-15.96782 -0.30031,-2.25774 -0.33227,-5.61753 -0.0741,-7.78789 0.57465,-4.83047 2.06959,-8.5561 4.876,-12.1518 0.58015,-0.74332 2.66131,-2.80394 3.43321,-3.39934 3.09127,-2.38442 6.29086,-3.69046 10.39326,-4.24243 1.16099,-0.15621 4.31815,-0.15807 5.58676,-0.003 3.09981,0.3782 5.72524,1.25734 8.3413,2.79313 6.75865,3.96775 10.51014,11.29593 10.51014,20.53057 0,5.89881 -1.52515,11.17425 -4.38842,15.17943 -1.04659,1.46399 -2.59129,3.11303 -3.85128,4.11141 -2.90462,2.30153 -6.19023,3.63088 -10.26842,4.15455 -0.71513,0.0918 -4.66764,0.17673 -5.21223,0.11196 z m 17.16604,-12.40596 c 0,-4.20421 -0.0336,-5.07077 -0.25419,-6.55821 -0.51774,-3.49093 -1.86291,-6.73158 -3.90692,-9.41212 -0.63148,-0.82813 -1.81891,-2.05163 -2.61167,-2.691 -1.86636,-1.50524 -4.13036,-2.53222 -6.29099,-2.85366 l -0.54422,-0.081 v -0.50709 c 0,-0.36901 0.0375,-0.6085 0.13785,-0.87947 0.2001,-0.54053 0.19725,-1.59302 -0.006,-2.10659 -0.36506,-0.9238 -1.11741,-1.45329 -1.88153,-1.32419 -0.5392,0.0911 -1.10734,0.63664 -1.37904,1.32419 -0.20295,0.51357 -0.20579,1.56606 -0.006,2.10659 0.10031,0.27097 0.13785,0.51046 0.13785,0.87947 v 0.50709 l -0.54422,0.081 c -2.18073,0.32443 -4.45592,1.36435 -6.35496,2.90465 -0.74415,0.60359 -1.9389,1.84161 -2.5477,2.64001 -2.35768,3.09189 -3.77457,6.91715 -4.09595,11.05801 -0.036,0.46423 -0.0652,2.66189 -0.0652,4.91573 v 4.07616 h 15.10611 15.10612 z"
       id="path15"
       transform="scale(0.26458333)" /><path
       style="font-variation-settings:normal;opacity:1;vector-effect:none;fill:#65d0c6;fill-opacity:1;stroke-width:0.0624219;stroke-linecap:butt;stroke-linejoin:miter;stroke-miterlimit:4;stroke-dasharray:none;stroke-dashoffset:0;stroke-opacity:1;-inkscape-stroke:none"
       d="m 460.33084,429.92065 c -3.12031,-0.38649 -5.13439,-0.90104 -7.25126,-1.85255 -3.44725,-1.54949 -6.60151,-4.38196 -8.71968,-7.83012 -1.98213,-3.2267 -3.15264,-7.09313 -3.47169,-11.46769 -0.0816,-1.11901 -0.0822,-3.62552 -0.001,-4.71286 0.26659,-3.57416 1.10854,-6.75005 2.53193,-9.55056 1.05003,-2.06595 2.18252,-3.64091 3.83087,-5.32762 1.76779,-1.80893 3.43272,-3.03681 5.55906,-4.09979 2.72563,-1.36257 5.64472,-2.06948 8.92634,-2.16167 4.9567,-0.13925 8.93289,0.94706 12.82772,3.50457 5.37642,3.5304 8.6263,9.28163 9.43606,16.69874 0.15949,1.46089 0.15949,5.0309 10e-6,6.49188 -0.14353,1.31477 -0.41455,2.92777 -0.66601,3.9638 -0.27836,1.14684 -0.91821,3.03585 -1.39068,4.10566 -1.7294,3.91588 -4.48516,7.1607 -7.87797,9.27606 -2.67284,1.66647 -5.92039,2.6831 -9.3953,2.94116 -0.78314,0.0582 -3.91585,0.0733 -4.33832,0.021 z m 17.25967,-12.40222 c 0,-4.20421 -0.0336,-5.07077 -0.25419,-6.55821 -0.51774,-3.49093 -1.86291,-6.73158 -3.90692,-9.41212 -0.63148,-0.82813 -1.81891,-2.05163 -2.61167,-2.691 -1.86636,-1.50524 -4.13036,-2.53222 -6.29099,-2.85366 l -0.54422,-0.081 v -0.50709 c 0,-0.36901 0.0375,-0.6085 0.13785,-0.87947 0.2001,-0.54053 0.19725,-1.59302 -0.006,-2.10659 -0.36506,-0.9238 -1.11741,-1.45329 -1.88153,-1.32419 -0.5392,0.0911 -1.10734,0.63664 -1.37904,1.32419 -0.20295,0.51357 -0.20579,1.56606 -0.006,2.10659 0.10031,0.27097 0.13785,0.51046 0.13785,0.87947 v 0.50709 l -0.54422,0.081 c -2.18073,0.32443 -4.45592,1.36435 -6.35496,2.90465 -0.74415,0.60359 -1.9389,1.84161 -2.5477,2.64001 -2.35768,3.09189 -3.77457,6.91715 -4.09595,11.05801 -0.036,0.46423 -0.0652,2.66189 -0.0652,4.91573 v 4.07616 h 15.10611 15.10612 z"
       id="path16"
       transform="scale(0.26458333)" /></g><!-- Sfondo turchese --><path
     id="rect1"
     style="fill:#63cfc5;stroke-width:0.0428223"
     d="m 93.377443,7.3599778 h 8.574407 v 8.5545102 h -8.574407 z" /><!-- Cupola principale (mezza ellisse) --><path
     d="m 93.650993,13.648548 c 0,-2.41218 1.5975,-4.8243502 3.99376,-4.8243502 2.396257,0 3.993757,2.4121702 3.993757,4.8243502 z"
     fill="#ffffff"
     id="path1"
     style="stroke-width:0.0798752" /><path
     d="m 97.346243,9.1231878 c -0.85659,0.54449 -1.69797,2.9870902 -1.56923,5.2389002"
     stroke="#000000"
     stroke-width="0.307343"
     fill="none"
     id="curve-left-7-0" /><path
     d="m 97.930793,9.1059048 c 0.90778,0.54395 1.79945,2.9840902 1.66301,5.2336402"
     stroke="#000000"
     stroke-width="0.316234"
     fill="none"
     id="curve-left-7" /><!-- Lanterna superiore --><path
     id="rect2"
     style="fill:#ffffff;stroke-width:0.0699711"
     d="m 96.681184,8.4690845 h 1.927138 v 0.508107 h -1.927138 z" /><path
     id="rect2-5"
     style="fill:#ffffff;stroke-width:0.0455606"
     d="M 98.015263,7.5260367 97.703296,8.0908461 97.335778,7.4254653 97.647746,6.8606559 Z" /><path
     id="rect2-5-2"
     style="fill:#ffffff;stroke-width:0.085348"
     d="m 97.179008,7.421222 h 0.945614 v 1.540647 h -0.945614 z" /><!-- Due linee curve nere dalla cima --><!-- Base della cupola --><path
     id="rect3"
     style="fill:#ffffff;stroke-width:0.0802809"
     d="m 93.650993,13.628208 h 7.987527 v 2.01722 h -7.987527 z" /><!-- Tre aperture nella base --><path
     id="circle3"
     style="stroke-width:0.0798752"
     d="m 95.887503,14.607048 a 0.63900238,0.63900244 0 0 1 -0.63901,0.639 0.63900238,0.63900244 0 0 1 -0.639,-0.639 0.63900238,0.63900244 0 0 1 0.639,-0.639 0.63900238,0.63900244 0 0 1 0.63901,0.639 z" /><path
     id="circle4"
     style="stroke-width:0.0798752"
     d="m 98.283773,14.607048 a 0.63900238,0.63900244 0 0 1 -0.63901,0.639 0.63900238,0.63900244 0 0 1 -0.639,-0.639 0.63900238,0.63900244 0 0 1 0.639,-0.639 0.63900238,0.63900244 0 0 1 0.63901,0.639 z" /><path
     id="circle5"
     style="stroke-width:0.0798752"
     d="m 100.68002,14.607048 a 0.63900238,0.63900244 0 0 1 -0.639,0.639 0.63900238,0.63900244 0 0 1 -0.638997,-0.639 0.63900238,0.63900244 0 0 1 0.638997,-0.639 0.63900238,0.63900244 0 0 1 0.639,0.639 z" /><path
     style="fill:#000000;stroke-width:0.0218845;-inkscape-stroke:none"
     d="m 111.6466,9.7327978 0.006,-7.829169 1.54833,-0.0056 1.54833,-0.0056 v 6.499839 6.4998402 h 3.51245 3.51246 v 1.33495 1.33495 h -5.06628 -5.06629 z"
     id="path22" /><path
     style="fill:#000000;stroke-width:0.0218845;-inkscape-stroke:none"
     d="m 128.43749,17.833538 c -0.0361,-0.005 -0.1592,-0.0196 -0.27355,-0.0326 -1.0065,-0.1145 -1.99515,-0.52431 -2.75339,-1.1413 -0.98569,-0.80208 -1.70002,-2.02776 -1.97395,-3.38704 -0.12639,-0.62711 -0.14099,-0.79651 -0.1415,-1.64134 -5.2e-4,-0.84951 0.0154,-1.03105 0.1452,-1.6632202 0.18354,-0.89355 0.61866,-1.81508 1.1935,-2.52766 0.22807,-0.28273 0.68034,-0.72185 0.95958,-0.9317 0.76938,-0.57819 1.64436,-0.92917 2.64716,-1.06185 0.58087,-0.0769 1.43877,-0.0441 2.02993,0.0776 1.00558,0.2069 1.95996,0.71277 2.70512,1.43385 0.84346,0.8162 1.43059,1.9784 1.64213,3.2505202 0.088,0.52911 0.0998,0.69802 0.0995,1.42249 -2.5e-4,0.61009 -0.007,0.76168 -0.0485,1.06582 -0.11589,0.8522 -0.28896,1.43153 -0.63942,2.14026 -0.31784,0.64277 -0.62893,1.07729 -1.09752,1.53302 -0.80309,0.78103 -1.72606,1.22953 -2.90763,1.41294 -0.23547,0.0366 -0.41982,0.0472 -0.90821,0.0525 -0.33702,0.004 -0.64231,0.003 -0.67842,-0.002 z m 1.02907,-2.55787 c 0.50487,-0.0819 0.89336,-0.28423 1.26618,-0.65947 0.45971,-0.46271 0.7873,-1.20629 0.92453,-2.0986 0.0575,-0.37375 0.0583,-1.41611 10e-4,-1.7922 -0.10153,-0.67117 -0.32942,-1.2819302 -0.64702,-1.7340502 -0.3863,-0.54991 -0.94287,-0.90128 -1.57377,-0.99353 -0.2937,-0.0429 -0.84387,-0.0175 -1.10337,0.051 -1.37626,0.36331 -2.12091,1.83053 -2.00703,3.9545202 0.0391,0.7295 0.16616,1.29728 0.4058,1.81358 0.26122,0.56279 0.74812,1.07409 1.22269,1.28397 0.16019,0.0708 0.4628,0.15797 0.63471,0.18275 0.21267,0.0306 0.66315,0.0266 0.87588,-0.008 z"
     id="path23" /><path
     style="fill:#000000;stroke-width:0.0218845;-inkscape-stroke:none"
     d="m 142.22471,17.833148 c -1.29058,-0.12612 -2.10857,-0.37901 -2.88875,-0.89306 -1.46452,-0.96496 -2.25818,-2.4479 -2.44203,-4.56291 -0.0377,-0.43334 -0.0141,-1.417 0.0432,-1.80127 0.2099,-1.4084302 0.79708,-2.6244502 1.70905,-3.5393002 0.52474,-0.5264 1.19083,-0.96798 1.84722,-1.22462 1.18727,-0.4642 2.66216,-0.53768 4.17918,-0.20821 0.50579,0.10985 0.76268,0.18503 1.1705,0.34253 0.20304,0.0784 0.22499,0.0922 0.21406,0.1342 -0.18322,0.70473 -0.61447,2.30488 -0.62411,2.31571 -0.007,0.008 -0.14118,-0.028 -0.29765,-0.0804 -0.37495,-0.12538 -0.82667,-0.2408 -1.13197,-0.28922 -0.19548,-0.031 -0.37636,-0.039 -0.87046,-0.0387 -0.56821,2.6e-4 -0.64415,0.005 -0.85349,0.0507 -0.61611,0.13469 -0.98398,0.32781 -1.3798,0.72434 -0.45119,0.452 -0.74008,1.02052 -0.88483,1.7413002 -0.0781,0.3891 -0.10069,0.649 -0.10062,1.15993 2.4e-4,1.71305 0.49068,2.76702 1.52269,3.27229 0.29736,0.14558 0.52376,0.21594 0.92543,0.28759 0.24286,0.0433 0.35332,0.0497 0.8691,0.0503 0.4584,5.3e-4 0.65467,-0.008 0.87538,-0.0395 0.54948,-0.0776 1.09011,-0.20718 1.49519,-0.35834 0.11221,-0.0419 0.20784,-0.0723 0.21252,-0.0676 0.0106,0.0105 0.44791,2.36373 0.44791,2.40999 0,0.0846 -0.88379,0.35539 -1.57568,0.48279 -0.5705,0.10504 -0.84103,0.12725 -1.63039,0.13383 -0.40925,0.003 -0.78347,0.002 -0.83162,-0.002 z"
     id="path24" /><path
     style="fill:#000000;stroke-width:0.0218845;-inkscape-stroke:none"
     d="m 151.4162,17.778908 c -1.48097,-0.11958 -2.47467,-0.49692 -3.19498,-1.21324 -0.62202,-0.61857 -0.90936,-1.4485 -0.90794,-2.62242 0.002,-1.29043 0.43488,-2.16755 1.38212,-2.79772 0.96126,-0.63949 2.61946,-0.97891 4.25271,-0.8705 0.51095,0.0339 1.06043,0.11113 1.34398,0.18886 l 0.0528,0.0145 -0.0148,-0.37625 c -0.0353,-0.8985502 -0.27553,-1.4667602 -0.7536,-1.7826302 -0.52974,-0.35001 -1.06513,-0.45137 -2.15218,-0.40745 -0.89498,0.0362 -1.68941,0.16522 -2.34976,0.38174 -0.12036,0.0395 -0.22226,0.0686 -0.22643,0.0648 -0.004,-0.004 -0.0936,-0.54188 -0.19868,-1.1957 l -0.19109,-1.18877 0.11114,-0.0391 c 0.2674,-0.0941 1.03527,-0.26249 1.71026,-0.37513 1.26454,-0.21102 2.63461,-0.21165 3.67504,-0.002 0.75108,0.15156 1.38725,0.44872 1.91088,0.89257 0.74389,0.63056 1.16704,1.61609 1.29406,3.01393 0.0148,0.16326 0.0229,1.5745602 0.0229,4.0174902 l 7e-5,3.76582 -0.43222,0.0799 c -1.03356,0.19105 -2.13385,0.35755 -2.69726,0.40816 -0.71509,0.0642 -2.09455,0.0866 -2.63708,0.0428 z m 2.58236,-2.36007 c 0.16851,-0.0263 0.31384,-0.0552 0.32296,-0.0642 0.009,-0.009 0.014,-0.66067 0.011,-1.44809 l -0.006,-1.43167 -0.12037,-0.0269 c -0.0662,-0.0148 -0.27793,-0.0492 -0.47051,-0.0765 -0.46574,-0.0661 -1.41624,-0.0727 -1.79453,-0.0125 -0.63875,0.10164 -1.01712,0.24946 -1.29351,0.50535 -0.27358,0.2533 -0.38065,0.53867 -0.38065,1.01457 0,0.82432 0.32983,1.25849 1.12705,1.48355 0.37566,0.10606 0.54111,0.11869 1.45532,0.11117 0.73559,-0.006 0.88144,-0.013 1.14893,-0.0548 z"
     id="path25" /><path
     style="fill:#000000;stroke-width:0.0218845;-inkscape-stroke:none"
     d="m 164.10919,17.756858 c -1.5473,-0.12607 -2.53109,-0.53932 -3.10529,-1.30439 -0.30724,-0.40937 -0.49889,-0.96068 -0.60709,-1.74642 -0.021,-0.15234 -0.0288,-1.78335 -0.0344,-7.1999902 l -0.007,-7.00303502 1.41743,-0.226746 c 0.7796,-0.124711 1.44945,-0.231865 1.48857,-0.238122 l 0.0711,-0.01138 V 6.8345878 c 0,7.4984002 -0.007,7.1008502 0.13357,7.5205902 0.13852,0.41346 0.31845,0.61072 0.6976,0.76479 0.18365,0.0746 0.51443,0.15581 0.77187,0.18946 0.14577,0.0191 0.21338,0.0369 0.21338,0.0563 0,0.0156 -0.0936,0.55973 -0.20791,1.20921 -0.11434,0.64947 -0.2079,1.18649 -0.2079,1.19339 0,0.017 -0.35492,0.0105 -0.62371,-0.0114 z"
     id="path26" /><path
     style="fill:#000000;stroke-width:0.0218845;-inkscape-stroke:none"
     d="m 169.48183,17.831058 c -0.26484,-0.0161 -0.79196,-0.0753 -1.05045,-0.11793 -0.64907,-0.10714 -1.99149,-0.49753 -1.99149,-0.57914 0,-0.0413 0.52662,-2.38192 0.53862,-2.39392 0.006,-0.006 0.0418,0.002 0.0804,0.0173 0.0387,0.0151 0.2574,0.0902 0.4861,0.16693 0.7451,0.25002 1.26433,0.373 1.91489,0.45354 0.31133,0.0385 1.49984,0.0385 1.75075,-1e-5 0.74713,-0.11477 1.05613,-0.3379 1.13957,-0.82288 0.0765,-0.44473 -0.0972,-0.7807 -0.56133,-1.08583 -0.26307,-0.17295 -0.89489,-0.47161 -1.54663,-0.7311 -1.64399,-0.65456 -2.27912,-1.01977 -2.78095,-1.59908 -0.48983,-0.56547 -0.6948,-1.13073 -0.73009,-2.0133802 -0.0413,-1.03203 0.24524,-1.81992 0.89979,-2.47447 0.90097,-0.90098 2.34777,-1.33338 4.13711,-1.23645 0.93251,0.0505 1.86729,0.22144 2.70082,0.49385 0.28627,0.0936 0.30824,0.10456 0.29755,0.14902 -0.006,0.0264 -0.12811,0.54804 -0.27059,1.15922 -0.14248,0.61117 -0.26339,1.11555 -0.2687,1.12086 -0.005,0.005 -0.11255,-0.0254 -0.23832,-0.0682 -0.12578,-0.0428 -0.42072,-0.13143 -0.65543,-0.19698 -0.70544,-0.19699 -1.11339,-0.25416 -1.82735,-0.25607 -0.52908,-0.001 -0.77923,0.0285 -1.08113,0.12945 -0.52485,0.17546 -0.769,0.4687 -0.76758,0.92191 0.002,0.69558 0.42299,1.01303 2.24263,1.6917902 0.67337,0.25118 1.35404,0.57384 1.79452,0.85064 0.59986,0.37696 1.027,0.81264 1.27925,1.30483 0.30901,0.60293 0.42009,1.50862 0.28445,2.31938 -0.1077,0.64383 -0.39426,1.17951 -0.87869,1.64259 -0.68521,0.65502 -1.73233,1.03669 -3.14591,1.14667 -0.26541,0.0206 -1.45178,0.0257 -1.75186,0.007 z"
     id="path27" /><rect
     style="fill:#ffffff;stroke-width:0.334895;-inkscape-stroke:none"
     id="rect4"
     width="0.099240631"
     height="1.3478813"
     x="97.593071"
     y="6.094316" /><rect
     style="fill:#ffffff;stroke-width:0.261417;-inkscape-stroke:none"
     id="rect4-5"
     width="0.099240631"
     height="0.82130134"
     x="-6.5283036"
     y="97.226059"
     transform="rotate(-90)" /><path
     style="fill:#000000;fill-opacity:1;stroke-width:0.0564142;-inkscape-stroke:none"
     d="m 111.61757,1.8884485 c 0,5.2277305 0,10.4554605 0,15.6831915 1.11519,0.06172 2.27786,0.0088 3.4113,0.02645 2.25658,0 4.51315,0 6.76972,0 0.0617,-0.889528 0.009,-1.826548 0.0264,-2.734334 -1.11519,-0.06172 -2.27786,-0.0088 -3.41131,-0.02645 -1.2135,0 -2.42699,0 -3.64049,0 0,-4.316286 0,-8.6325713 0,-12.9488572 -1.02119,-0.06165 -2.08984,-0.00873 -3.12923,-0.026444 z"
     id="path93" /><path
     style="fill:#000000;fill-opacity:1;stroke-width:0.0564142;-inkscape-stroke:none"
     d="m 128.8451,5.3653139 c -2.03591,0.016161 -3.98632,1.2422402 -4.89736,3.0606992 -0.72983,1.4154171 -0.81947,3.0857459 -0.58607,4.6366649 0.30138,2.024071 1.72241,3.878783 3.68743,4.529015 1.30853,0.425356 2.75976,0.369677 4.06403,-0.04209 1.73696,-0.593543 2.96171,-2.192544 3.42167,-3.928731 0.2856,-0.954176 0.15163,-1.967273 0.16262,-2.947918 -0.0664,-1.5213002 -0.8318,-2.9894668 -1.97879,-3.9791481 -1.06343,-0.9191104 -2.47554,-1.3726761 -3.87353,-1.328492 z m 0.24593,2.6497116 c 1.01206,-0.027157 1.86191,0.7388841 2.21823,1.6420766 0.42648,0.8565699 0.29482,1.8407349 0.29177,2.7648549 -0.0819,1.095103 -0.64738,2.285782 -1.73045,2.697311 -0.71378,0.231926 -1.5604,0.182195 -2.19465,-0.238549 -0.69072,-0.538066 -1.14191,-1.353342 -1.22804,-2.222982 -0.20152,-1.342578 -0.11089,-2.8937758 0.85287,-3.9408376 0.45806,-0.4915715 1.13138,-0.7071727 1.79027,-0.7018739 z"
     id="path94" /><path
     style="fill:#000000;fill-opacity:1;stroke-width:0.0564142;-inkscape-stroke:none"
     d="m 142.62651,5.3717044 c -1.82573,-0.010718 -3.62963,0.9032002 -4.654,2.4221524 -0.70831,1.0716226 -1.16556,2.3523462 -1.10272,3.6493282 -0.0485,1.130864 0.0772,2.285384 0.56988,3.31772 0.67152,1.567749 2.18339,2.680735 3.84728,2.981968 1.07636,0.207017 2.18787,0.120683 3.27131,0.01806 0.54738,-0.103008 1.12575,-0.195689 1.62191,-0.452197 0.19636,-0.297255 -0.0254,-0.687891 -0.0404,-1.009054 -0.1137,-0.494953 -0.15919,-1.026949 -0.32323,-1.500283 -0.66412,0.141855 -1.31818,0.376473 -2.0058,0.406139 -1.08821,0.107317 -2.3611,-0.0077 -3.10786,-0.912326 -0.82692,-1.007116 -0.78824,-2.403186 -0.67124,-3.631013 0.16637,-1.1799582 0.99337,-2.3676537 2.2341,-2.5652001 1.0635,-0.2009963 2.14879,0.00901 3.16185,0.3493945 0.25866,-0.6809756 0.42094,-1.4394191 0.60898,-2.1592815 0.11603,-0.3146825 -0.24643,-0.4315383 -0.47758,-0.4829321 -0.94136,-0.3141162 -1.94204,-0.4441475 -2.93251,-0.4324794 z"
     id="path95" /><path
     style="fill:#000000;fill-opacity:1;stroke-width:0.0564142;-inkscape-stroke:none"
     d="m 152.09476,5.3693906 c -1.23362,0.024852 -2.46686,0.2138074 -3.64909,0.5650251 0.0602,0.8037034 0.23063,1.6214701 0.36681,2.4238339 0.22399,0.055587 0.50262,-0.1233392 0.74341,-0.1490792 1.05816,-0.2143869 2.17257,-0.3693904 3.24515,-0.1678107 0.57167,0.1432412 1.15801,0.4799764 1.30645,1.0888411 0.12057,0.4107651 0.20876,0.8621562 0.16561,1.2867322 -1.1629,-0.243626 -2.37843,-0.227561 -3.5519,-0.06192 -1.25035,0.241003 -2.63111,0.807776 -3.16097,2.060446 -0.40803,1.015776 -0.35147,2.188953 2.7e-4,3.212313 0.48089,1.233442 1.79056,1.89558 3.03562,2.086902 1.12859,0.166677 2.27866,0.07135 3.41468,0.04732 1.08105,-0.0726 2.16888,-0.271849 3.21418,-0.501954 0.0296,-2.729047 0.0145,-5.460599 -0.0991,-8.1874637 -0.0543,-1.4092872 -0.95319,-2.7770238 -2.28995,-3.2804065 -0.8641,-0.3556013 -1.81619,-0.4303387 -2.74128,-0.4227772 z m 0.53593,6.9989054 c 0.53821,0.01013 1.08128,0.02117 1.60814,0.121754 0.01,0.949054 0.0198,1.898108 0.0296,2.847162 -0.90123,0.08702 -1.83109,0.157129 -2.7297,0.01664 -0.58191,-0.101522 -1.18725,-0.527756 -1.19578,-1.173851 -0.10369,-0.544605 0.0477,-1.192786 0.58436,-1.456798 0.50909,-0.288385 1.12685,-0.344661 1.70334,-0.354904 z"
     id="path96" /><path
     style="fill:#000000;fill-opacity:1;stroke-width:0.0564142;-inkscape-stroke:none"
     d="m 163.22833,0.00462774 c -0.97502,0.16409334 -1.97902,0.28510156 -2.93344,0.49043027 0.0301,4.68972219 -0.003,9.38029649 0.0744,14.06945799 -7.9e-4,1.193151 0.70512,2.397131 1.84563,2.828404 0.8062,0.318113 1.71111,0.465952 2.56377,0.380687 0.10686,-0.811303 0.34402,-1.618742 0.3559,-2.436725 -0.52771,-0.174291 -1.20625,-0.193911 -1.5287,-0.738676 -0.24318,-0.584482 -0.14337,-1.261088 -0.19422,-1.885904 -0.0624,-4.2300025 -0.0296,-8.4617256 -0.11771,-12.69103643 L 163.26469,0 Z"
     id="path97" /><path
     style="fill:#000000;fill-opacity:1;stroke-width:0.0564142;-inkscape-stroke:none"
     d="m 171.22242,5.3649832 c -1.48803,0.012033 -3.14068,0.4575712 -4.02316,1.7493961 -0.62532,1.004552 -0.67454,2.3445483 -0.18169,3.4135087 0.56284,1.176889 1.85352,1.677587 2.97933,2.154574 0.72249,0.34266 1.55973,0.547617 2.1255,1.140378 0.39972,0.458114 0.17305,1.29388 -0.45484,1.402536 -0.89085,0.190226 -1.82493,0.140274 -2.72111,0.0206 -0.66026,-0.09765 -1.28446,-0.378786 -1.93252,-0.502991 -0.21501,0.235457 -0.1823,0.622339 -0.28939,0.912735 -0.0912,0.491538 -0.25545,0.980203 -0.30814,1.473525 0.25485,0.261485 0.68746,0.265777 1.01805,0.391466 1.42571,0.412953 2.93461,0.416189 4.40037,0.270853 1.26976,-0.170385 2.64045,-0.747938 3.21232,-1.973622 0.34709,-0.751667 0.34336,-1.625187 0.20869,-2.42758 -0.23441,-1.111288 -1.17503,-1.887598 -2.15741,-2.34946 -1.00775,-0.517643 -2.14935,-0.783399 -3.07271,-1.4518979 -0.47281,-0.376468 -0.40775,-1.2757502 0.18731,-1.4990572 0.9531,-0.4050382 2.03676,-0.2174737 3.012,0.00749 0.34289,0.052235 0.68533,0.2620378 1.0278,0.2327093 0.22552,-0.7594719 0.40314,-1.5464994 0.50817,-2.3311692 -0.60346,-0.2930001 -1.29735,-0.3953753 -1.95633,-0.5188577 -0.52328,-0.07961 -1.05275,-0.1220906 -1.58224,-0.1151427 z"
     id="path98" /></svg>
